<svg id="Layer_1" xmlns="http://www.w3.org/2000/svg" viewBox="0 0 510.2 253.9"><style>.st0{fill:#fff}.st1{fill:#e40029}.st2{fill:#7f9acf}.st3{fill:#f49500}.st4{fill:#009a3c}.st5,.st6{fill-rule:evenodd;clip-rule:evenodd;fill:#004079}.st6{fill:#b1b2b3}.st7{fill:#004079}</style><path class="st0" d="M141.4 149.1h29.2v29.2h-29.2zM176.8 149.1H206v29.2h-29.2zM212.3 149.1h29.2v29.2h-29.2zM247.7 149.1h29.2v29.2h-29.2z"/><path class="st1" d="M151.5 172.7v-4.1h19.1V149h-29.2v29.2h29.2v-5.5h-19.1zm-4.7 0h-4.1v-4.1h4.1v4.1z"/><path class="st2" d="M193.9 172.7v-4.1H206V149h-29.2v19.6h3.5v4.1h-3.5v5.5H206v-5.5h-12.1zm-4.7 0H185v-4.1h4.1v4.1z"/><path class="st3" d="M237.1 172.7v-4.1h4.3V149h-29.2v19.6h11.3v4.1h-11.3v5.5h29.2v-5.5h-4.3zm-4.7 0h-4.1v-4.1h4.1v4.1z"/><path class="st4" d="M247.7 149.1v19.6h19.1v4.1h-19.1v5.5h29.2v-29.2h-29.2zm28 23.6h-4.1v-4.1h4.1v4.1z"/><path class="st5" d="M186.3 25.5C162.2 13.6 116.7 5.5 51.7.8 39.2.6 26.6.3 14.1 0-8.4 2.6-1.1 25 16.3 18.8c7-3.7 10.1-3.7 19.4-4.7 2.4-.1 4.7-.2 7.1-.3 6.6.2 9.2-2 9.9-5.3 52.5 2.8 78.9 11.2 106.8 19.2 67.6 23.7 26 41.4-8.2 43.8-23.9 2.2-48.4 2.1-73.1 1.4-.5-14.1-.3-28.3.5-42.6 1.3-11.4 0-18.4-10.8-16-8.7 3.1-4.8 19.6-3 33.9.6 7.2 1 14.2.7 21-6.3-.1-12.6-.2-18.8-.3-6.2-2.9-12.1-6.8-17.9-10.5-15.1-2.1-19.1 15.8 3.6 16.3 10.9 8.2 21.3 15 32 20.7.6 13.2.5 28.3 6.2 29 2.4 2.3 18.2-2 9.2-15.1v-8c23.6 19.1 59.1 23.4 93.9 33.1 20.4 4.9 17.2-16.5 2.1-16.7-10.9-.6-26.1-1.8-38.6-5.1-16.7-4.9-33.7-10.2-59.6-25.2.1-2.1.2-4.1.3-6.2 19.2 2 36.9 2.5 53.8 2 19.1-.6 43.1-.6 61.2-7.9 24.2-9.7 31.5-30.8-6.7-49.8zM57.6 78.7l7.6-.2v5.2c-2.9-1-5.4-2.6-7.6-5z"/><path class="st5" d="M273.3 104.3c-5.5 5.3-11.8 8.2-18.2 11.7-3.4-4.4-7.4-7.8-12.3-9.9-2.2-1.8-2.4-3.6-.6-5.4 5.1-2.3 4.9-5.1-1.1-7.9-6.2-1.5-9.3 3.1-11.9 8.8-8.6 19.1-30.2 21.8-37.7 11.1 5.5-5.1 8.2-17.3 3.4-23.6-6.2-6.3-16-2-16.6 7.1-3.3 26.7 41.9 42 55.2 10.4.9-2.5 2-3.4 3.3-1.9v2.3c.2 2.3 1.3 4.5 3.9 6.4 6.3 4.3 2.9 9.2-.2 10.3-5.4 2.6-2.9 7.9 3.8 7.4 5.9-.1 13.2.9 12.5-7.6 7.4-3.8 14.6-7.9 21.1-12.6 4.9-4.5 1.7-9.5-4.6-6.6zm-87.8-4.6c-.7-5.4 6.2-6.6 6.6-1.1-.1 4.7-.7 8.8-3.1 11.4-1.8-1.4-2.9-4.8-3.5-10.3zM436.7 111.4c-10.5 7-25.6 15.5-35.2 7.2-3.4-3.9-4.2-16.1 2.3-12.7 7.3 6.6 10.6-.7 6.1-4.4-13.7-9.4-21.9-2.3-18.9 15.4-5.5 8.2-19.9 8.9-27.1 5.1-3.7-2.7-3.2-6.6-.2-8 5.1-4.8 4.9-14-2.2-20.6-13.9-6.5-12.7 8.3-11.8 18.1-8.5 2-18.5 4.3-27 8.2 4.2-16.3-18.1-15.2-28.2-8.1-.2-8.5 1.4-16.8 3.7-24.7 5.8-21.5-6-21.6-8.9-9.1-3.8 32.7-1.9 70-1.7 104.7-.9 6.9-.1 12.3 2.1 16.1 4.1 3.2 14.9 3.6 10.9-9.4-2.9-5.9-5.5-33.9-5.9-40.4-1.3-16-.8-12.4-1.5-28.4h2.3c2.7.8 4.8-.5 6.3-4 1.3-1.4 2.7-2.7 5.8-3.1 5.6.1 7.5 2.5 5.6 7-7.2 6.6 3.6 11.7 12.4 5.6 7.9-4.5 16.1-7.5 24.7-8.9 7.4 15.3 34.2 19 46.7 5.7 10.1 12 28.6 6.6 50.8-6.7.2-2.9-6.1-9-11.1-4.6zm-78.9-.7c-1.9-2.2-2.7-5.3-2.4-9.4.4-5.4 5.4-6.2 5.9-1.1.3 6.7-1.2 9.5-3.5 10.5z"/><path class="st5" d="M465 102.2c.3-3.7.6-7.3.8-11 4.2-21.7-9.8-17.2-8.5-5.7.2 5.5.4 11 .7 16.5-3.2.2-6.4.1-9.5-.4-4.2-.5-7.9-1.5-11.2-2.7-8.4-2.5-6.2 6.6-4.2 7.6 2.3 2 6.7 2.7 12.7 2.7h11.6c-.7 12.8-.6 24.7-.1 36.6.4 8.4.9 13.3 3.3 19.5 2.9 7.7 7.8 7.2 9.7 3.8 3-5.2 5.3-10.6-.3-19.3-3.5-5.2-5.4-20.3-5.6-39.8 6.5-.3 13 .1 19.5-.2 5.1.7 7.3-8.3-.7-7.5-6 0-12.1 0-18.2-.1zM510.2 69.7c0 3.5-1.2 6.5-3.7 9s-5.5 3.8-9 3.8-6.6-1.3-9.1-3.8-3.7-5.5-3.7-9 1.2-6.6 3.7-9.1 5.5-3.8 9.1-3.8c3.5 0 6.5 1.3 9 3.8s3.7 5.5 3.7 9.1zm-1.4 0c0-3.1-1.1-5.8-3.3-8-2.2-2.2-4.9-3.3-8-3.3-3.1 0-5.8 1.1-8 3.3-2.2 2.2-3.3 4.9-3.3 8 0 3.1 1.1 5.8 3.3 8 2.2 2.2 4.9 3.3 8 3.3 3.2 0 5.8-1.1 8-3.3 2.2-2.2 3.3-4.9 3.3-8zm-16.1-7.4h5.4c1.9 0 3.3.4 4.2 1.1.9.7 1.3 1.6 1.3 2.7s-.4 2-1.3 2.8c-.6.5-1.6.9-2.8 1.1.6.3.9.5 1.2.7.2.2.6.6 1.1 1.3.5.6.9 1.2 1.1 1.6l1.4 2.5h-2.2l-1.3-2.3c-1-1.8-1.8-2.8-2.4-3.2-.5-.4-1.4-.5-2.6-.5h-1.1v6h-1.8V62.3zm1.8 1.5v4.8h1.7c1.9 0 3.2-.1 3.8-.3.5-.1.8-.4 1.1-.8.3-.4.5-.8.5-1.3 0-.7-.3-1.2-.7-1.7-.5-.5-1.8-.7-3.8-.7h-2.6z"/><path class="st6" d="M300.6 149.1h7l3.6 8.5 3.4-8.5h6.6l-6.6 16.3v12.8h-7v-12.8zM332.9 149.1h-5.1c-3.6 0-6.6 3-6.6 6.6v15.9c0 3.7 3 6.6 6.6 6.6h5.1c3.7 0 6.6-3 6.6-6.6v-15.9c.1-3.6-2.9-6.6-6.6-6.6zm0 7.4c0-3.7-5.1-3.7-5.1 0v14.3c0 3.9 5.1 3.9 5.1 0v-14.3zM341.6 149.1v22.5c0 3.6 3 6.6 6.6 6.6h5.1c3.7 0 6.7-3 6.6-6.6l-.1-22.5h-6.5v21.8c0 3.9-5.1 3.9-5.1 0l-.1-21.8h-6.5zM400.2 149.1h15.6v5.2h-9v6.3h8.1v4.8h-8.1v7.6h9v5.2h-15.6zM417.5 149.1h6.4V173h8.1v5.2h-14.5zM433.2 149.1h16v5.2h-9.4v6.3h8v5.3h-8v12.3h-6.6zM361.8 149.1h12.7c5.9 0 8.2 11.6 2.1 14.8 1.7.5 3 2 3 4.4v6.4c0 1.1.7 2.6 1.8 3.6h-7.1c-1.2-1-1.2-2.7-1.2-3.6v-5.4c0-1.1 0-3.4-1.9-3.4h-2.7v12.3h-6.6v-29.1zm6.7 5.2c1.7-1.5 4.6 0 4.6 3.2 0 3.1-2.7 4.7-4.6 3.1v-6.3z"/><path class="st6" d="M398.1 167.7v4c0 3.7-2.7 6.6-6.1 6.6h-4.6c-3.3 0-6.1-3-6.1-6.6V169h5.5v1.9c0 3.9 5.2 3.9 5.2 0 0-1.9-.8-2.9-2.4-3.9l-5.1-3.4c-2-1.3-3.2-2.9-3.2-5.9v-1.9c0-3.6 2.7-6.6 6.1-6.6h4.6c3.3 0 6.1 3 6.1 6.6v1.5H392v-.7c0-4.3-4.6-4.3-4.6 0 0 1.2 1.2 2 2.3 2.7l5 3.3c1.8 1.1 3.4 3.3 3.4 5.1z"/><g><path class="st7" d="M63.5 220.2c3.7 0 6.8 1.3 9.3 4 2.2 2.5 3.3 5.4 3.3 8.7 0 3.4-1.2 6.3-3.5 8.9-2.4 2.5-5.4 3.8-9.1 3.8-3.7 0-6.7-1.3-9.1-3.8-2.4-2.5-3.5-5.5-3.5-8.9 0-3.4 1.1-6.3 3.3-8.7 2.5-2.6 5.6-4 9.3-4zm0 3.1c-2.6 0-4.8 1-6.7 2.9-1.9 1.9-2.8 4.2-2.8 6.9 0 1.7.4 3.4 1.3 4.9.8 1.5 2 2.7 3.4 3.5 1.4.8 3 1.2 4.8 1.2s3.3-.4 4.8-1.2c1.4-.8 2.6-2 3.4-3.5.8-1.5 1.3-3.1 1.3-4.9 0-2.7-.9-5-2.8-6.9-1.9-2-4.1-2.9-6.7-2.9zM102.7 211v3c-1.5.3-4 .4-7.6.5-2.6.1-4.6.3-6 .5-1.4.3-2.7.8-3.7 1.5-1.1.7-1.9 1.8-2.7 3.3-.7 1.5-1.2 3.2-1.3 5l-.3 3.4c.8-2.8 2.2-4.8 4.2-6.1 1.9-1.3 4.1-1.9 6.4-1.9 3.6 0 6.6 1.3 9 3.8 2.4 2.5 3.6 5.5 3.6 9s-1.2 6.4-3.6 8.9c-2.4 2.5-5.4 3.7-9 3.7-3.7 0-6.8-1.4-9.4-4.1-2.6-2.8-3.9-7.1-3.9-13 0-4.1.5-7.3 1.4-9.4.9-2.1 2-3.7 3.2-4.6 1.2-.9 2.8-1.7 4.7-2.2 1.9-.5 5.5-.9 10.8-1 1.8 0 3.1-.1 4.2-.3zm-1.6 22.1c0-2.7-.9-5-2.8-6.9-1.9-1.9-4.1-2.9-6.7-2.9-2.6 0-4.8 1-6.6 2.9-1.9 1.9-2.8 4.2-2.8 6.9s.9 4.9 2.7 6.8c1.8 1.9 4.1 2.8 6.7 2.8 2.7 0 5-.9 6.8-2.8 1.8-1.9 2.7-4.2 2.7-6.8zM105.2 220.8h3.3l8.3 18.6 8.1-18.6h3.3l-14.4 33h-3.3l4.7-10.7-10-22.3zM136.9 245h-7v-24.2h6.9c2.6 0 4.5.6 5.7 1.8 1.2 1.2 1.7 2.6 1.7 4.3 0 2.5-1.1 4.1-3.2 5 3.1 1.1 4.7 3.3 4.7 6.4 0 4.5-2.9 6.7-8.8 6.7zm-3.9-21.5v7.5h2c1.8 0 3-.1 3.6-.2.6-.1 1.1-.5 1.6-1.1.5-.6.7-1.4.7-2.3 0-1-.3-1.8-.8-2.5s-1.1-1.1-1.6-1.2c-.6-.1-1.7-.2-3.5-.2h-2zm0 10.4v8.5h3.3c1.6 0 2.7-.1 3.4-.3.7-.2 1.3-.6 1.7-1.3.5-.7.7-1.5.7-2.5 0-1.3-.4-2.4-1.2-3.2-.8-.8-1.9-1.2-3.3-1.2H133zM152 230.4h3c2.4 0 4.2.2 5.5.6 1.3.4 2.5 1.2 3.4 2.5 1 1.3 1.4 2.7 1.4 4.4 0 2-.7 3.7-2.1 5.1-1.4 1.4-3.5 2.1-6.3 2.1h-8v-24.2h3.1v9.5zm.1 2.9v9.1h3.6c4.2 0 6.3-1.5 6.3-4.4 0-.8-.2-1.7-.7-2.5-.5-.8-1.1-1.4-2-1.7-.9-.3-2.4-.5-4.6-.5h-2.6zM181.5 220.8v17.9l17.8-17.9h.2V245h-3.1v-17.7L178.8 245h-.4v-24.2h3.1zM238.6 220.8V245h-3.1v-4.2c-1.3 1.6-2.8 2.8-4.4 3.6-1.6.8-3.4 1.2-5.3 1.2-3.4 0-6.3-1.2-8.8-3.7-2.4-2.5-3.6-5.5-3.6-9.1 0-3.5 1.2-6.5 3.7-8.9 2.4-2.5 5.4-3.7 8.8-3.7 2 0 3.8.4 5.4 1.3 1.6.8 3 2.1 4.2 3.8v-4.4h3.1zm-12.4 2.4c-1.7 0-3.3.4-4.8 1.3s-2.6 2-3.5 3.6c-.9 1.5-1.3 3.2-1.3 4.9 0 1.7.4 3.3 1.3 4.9.9 1.6 2 2.8 3.5 3.6 1.5.9 3.1 1.3 4.7 1.3 1.7 0 3.3-.4 4.8-1.3s2.7-2 3.5-3.5c.8-1.5 1.2-3.1 1.2-5 0-2.8-.9-5.1-2.8-7-1.7-1.8-3.9-2.8-6.6-2.8zM243.3 220.8h3.1V231l11.2-10.2h4.3l-12.3 11.1L263 245h-4.4l-11.1-11.2-1 .9V245h-3.1v-24.2zM287.4 225.9l-2.5 1.5c-2.1-2.8-5-4.2-8.7-4.2-2.9 0-5.4.9-7.3 2.8-1.9 1.9-2.9 4.2-2.9 6.9 0 1.8.4 3.4 1.3 5s2.1 2.8 3.7 3.6c1.6.9 3.3 1.3 5.3 1.3 3.6 0 6.5-1.4 8.7-4.2l2.5 1.6c-1.2 1.7-2.7 3.1-4.7 4-1.9 1-4.2 1.4-6.7 1.4-3.8 0-7-1.2-9.5-3.6-2.5-2.4-3.8-5.4-3.8-8.9 0-2.3.6-4.5 1.8-6.5 1.2-2 2.8-3.6 4.9-4.7 2.1-1.1 4.4-1.7 6.9-1.7 1.6 0 3.1.2 4.6.7 1.5.5 2.8 1.1 3.8 1.9 1 .9 1.9 1.9 2.6 3.1zM311.5 237l2.6 1.4c-.9 1.7-1.9 3.1-3 4.1-1.1 1-2.4 1.8-3.8 2.4-1.4.5-3 .8-4.8.8-3.9 0-7-1.3-9.3-3.9-2.2-2.6-3.3-5.5-3.3-8.8 0-3.1.9-5.8 2.8-8.2 2.4-3.1 5.6-4.6 9.6-4.6 4.1 0 7.4 1.6 9.9 4.7 1.8 2.2 2.6 5 2.7 8.3h-21.8c.1 2.8 1 5.1 2.7 6.9 1.7 1.8 3.9 2.7 6.4 2.7 1.2 0 2.4-.2 3.6-.6 1.2-.4 2.2-1 3-1.7.8-.8 1.7-1.9 2.7-3.5zm0-6.5c-.4-1.7-1-3-1.8-4s-1.8-1.8-3.1-2.4c-1.3-.6-2.7-.9-4.1-.9-2.4 0-4.4.8-6.1 2.3-1.2 1.1-2.2 2.8-2.8 5h17.9zM341.9 225.9l-2.5 1.5c-2.1-2.8-5-4.2-8.7-4.2-2.9 0-5.4.9-7.3 2.8-1.9 1.9-2.9 4.2-2.9 6.9 0 1.8.4 3.4 1.3 5s2.1 2.8 3.7 3.6c1.6.9 3.3 1.3 5.2 1.3 3.6 0 6.5-1.4 8.7-4.2l2.5 1.6c-1.2 1.7-2.7 3.1-4.7 4-1.9 1-4.2 1.4-6.7 1.4-3.8 0-7-1.2-9.5-3.6-2.5-2.4-3.8-5.4-3.8-8.9 0-2.3.6-4.5 1.8-6.5 1.2-2 2.8-3.6 4.9-4.7 2.1-1.1 4.4-1.7 6.9-1.7 1.6 0 3.1.2 4.6.7 1.5.5 2.8 1.1 3.8 1.9 1.1.9 1.9 1.9 2.7 3.1zM369.1 225.9l-2.5 1.5c-2.1-2.8-5-4.2-8.7-4.2-2.9 0-5.4.9-7.3 2.8-1.9 1.9-2.9 4.2-2.9 6.9 0 1.8.4 3.4 1.3 5s2.1 2.8 3.7 3.6c1.6.9 3.3 1.3 5.3 1.3 3.6 0 6.5-1.4 8.7-4.2l2.5 1.6c-1.2 1.7-2.7 3.1-4.7 4-1.9 1-4.2 1.4-6.7 1.4-3.8 0-7-1.2-9.5-3.6-2.5-2.4-3.8-5.4-3.8-8.9 0-2.3.6-4.5 1.8-6.5 1.2-2 2.8-3.6 4.9-4.7 2.1-1.1 4.4-1.7 6.9-1.7 1.6 0 3.1.2 4.6.7 1.5.5 2.8 1.1 3.8 1.9.9.9 1.8 1.9 2.6 3.1zM370.2 220.8h3.3l8.3 18.6 8.1-18.6h3.3l-14.4 33h-3.3l4.7-10.7-10-22.3zM419 220.8V245h-3.1v-4.2c-1.3 1.6-2.8 2.8-4.4 3.6-1.6.8-3.4 1.2-5.3 1.2-3.4 0-6.3-1.2-8.8-3.7-2.4-2.5-3.6-5.5-3.6-9.1 0-3.5 1.2-6.5 3.7-8.9 2.4-2.5 5.4-3.7 8.8-3.7 2 0 3.8.4 5.4 1.3 1.6.8 3 2.1 4.2 3.8v-4.4h3.1zm-12.5 2.4c-1.7 0-3.3.4-4.8 1.3s-2.6 2-3.5 3.6c-.9 1.5-1.3 3.2-1.3 4.9 0 1.7.4 3.3 1.3 4.9.9 1.6 2 2.8 3.5 3.6 1.5.9 3.1 1.3 4.7 1.3 1.7 0 3.3-.4 4.8-1.3s2.7-2 3.5-3.5c.8-1.5 1.2-3.1 1.2-5 0-2.8-.9-5.1-2.8-7-1.6-1.8-3.9-2.8-6.6-2.8zM423.8 220.8h3.1v4.4c1.2-1.7 2.6-3 4.2-3.8 1.6-.8 3.4-1.3 5.4-1.3 3.4 0 6.4 1.2 8.8 3.7 2.4 2.5 3.7 5.5 3.7 8.9 0 3.6-1.2 6.6-3.6 9.1-2.4 2.5-5.3 3.7-8.8 3.7-1.9 0-3.7-.4-5.3-1.2-1.6-.8-3.1-2-4.4-3.6v13h-3.1v-32.9zm12.4 2.4c-2.7 0-5 .9-6.8 2.8-1.8 1.9-2.8 4.2-2.8 7 0 1.8.4 3.5 1.2 5 .8 1.5 2 2.6 3.5 3.5 1.5.9 3.1 1.3 4.8 1.3 1.7 0 3.2-.4 4.7-1.3s2.6-2.1 3.5-3.6c.9-1.6 1.3-3.2 1.3-4.9 0-1.7-.4-3.3-1.3-4.9-.9-1.5-2-2.7-3.5-3.6-1.3-.9-2.9-1.3-4.6-1.3zM455.6 230.4h3c2.4 0 4.2.2 5.5.6 1.3.4 2.5 1.2 3.5 2.5s1.4 2.7 1.4 4.4c0 2-.7 3.7-2.1 5.1-1.4 1.4-3.5 2.1-6.3 2.1h-8.1v-24.2h3.1v9.5zm.1 2.9v9.1h3.6c4.2 0 6.3-1.5 6.3-4.4 0-.8-.2-1.7-.7-2.5-.5-.8-1.1-1.4-2-1.7-.9-.3-2.4-.5-4.6-.5h-2.6zm17.6-12.5h3.1V245h-3.1v-24.2z"/></g></svg>